<?xml version="1.0" standalone="no"?>
<!DOCTYPE svg PUBLIC "-//W3C//DTD SVG 20010904//EN"
 "http://www.w3.org/TR/2001/REC-SVG-20010904/DTD/svg10.dtd">
<svg version="1.0" xmlns="http://www.w3.org/2000/svg"
 width="1080.000000pt" height="1080.000000pt" viewBox="0 0 1080.000000 1080.000000"
 preserveAspectRatio="xMidYMid meet">

<g transform="translate(0.000000,1080.000000) scale(0.100000,-0.100000)"
fill="#000000" stroke="none">
<path d="M720 10786 c-312 -69 -570 -294 -670 -582 -53 -152 -50 167 -50
-4804 0 -3988 2 -4618 15 -4677 77 -362 346 -631 708 -708 103 -22 9251 -22
9354 0 362 77 631 346 708 708 22 103 22 9251 0 9354 -77 362 -346 631 -708
708 -59 13 -687 15 -4685 14 -3595 -1 -4629 -4 -4672 -13z m3750 -1671 c311 0
607 4 658 8 87 7 92 7 92 -12 0 -16 -9 -21 -57 -26 -274 -31 -357 -79 -409
-236 -17 -50 -19 -112 -22 -771 l-3 -716 -53 -46 c-149 -127 -180 -281 -85
-422 24 -34 64 -79 91 -100 l48 -39 0 -665 0 -666 -35 -72 c-46 -96 -100 -175
-168 -243 l-56 -56 -303 -7 c-167 -4 -329 -9 -360 -12 -54 -6 -58 -4 -58 15 0
24 11 27 120 36 116 10 217 46 268 96 93 92 102 166 102 798 l0 498 61 6 c64
6 99 26 99 58 0 12 -10 21 -27 24 -16 3 -50 11 -78 18 l-50 12 -5 1095 c-5
952 -8 1102 -22 1145 -21 71 -34 94 -81 142 -54 56 -152 88 -329 108 -49 5
-58 10 -58 26 0 19 4 19 78 12 42 -4 331 -8 642 -8z m2140 0 c234 1 449 4 478
8 50 7 52 7 52 -16 0 -20 -7 -25 -62 -36 -81 -16 -215 -69 -297 -115 -143 -82
-238 -174 -446 -436 -203 -256 -573 -719 -611 -765 -154 -188 -293 -369 -289
-375 4 -7 -50 8 -64 18 -3 1 18 26 46 55 46 48 159 186 597 731 278 345 366
502 366 653 0 68 -17 108 -66 155 -44 42 -166 88 -232 88 -54 0 -72 8 -72 32
0 18 5 19 88 11 48 -4 278 -8 512 -8z m-805 -131 c182 -31 374 -114 481 -209
l48 -42 -33 -77 c-19 -42 -37 -79 -41 -81 -4 -3 -30 26 -58 63 -165 222 -415
342 -713 342 -174 0 -417 -44 -601 -109 -96 -34 -98 -35 -98 -22 0 23 276 97
520 139 92 16 394 14 495 -4z m710 -593 c104 -401 -50 -875 -399 -1226 -61
-61 -142 -133 -181 -160 -38 -26 -74 -51 -78 -55 -5 -4 10 -43 31 -86 94 -187
192 -493 327 -1019 63 -246 156 -520 216 -640 103 -205 230 -317 404 -355 28
-6 2 -8 -90 -6 -106 2 -143 7 -200 26 -195 67 -306 208 -404 510 -70 219 -89
303 -166 730 -53 295 -76 407 -111 543 -28 107 -70 227 -83 240 -5 5 -36 -5
-69 -22 -98 -50 -318 -118 -437 -136 -60 -9 -116 -19 -122 -21 -10 -2 -13 -37
-13 -126 0 -280 -31 -613 -77 -832 -67 -322 -168 -522 -341 -673 -134 -117
-252 -179 -414 -218 -80 -20 -318 -30 -378 -16 l-45 10 45 -3 c83 -5 235 13
313 37 154 49 297 158 396 302 126 181 200 424 251 818 23 183 53 581 48 658
l-3 53 -57 12 c-126 29 -245 119 -289 219 -28 63 -27 148 2 209 46 100 170
195 274 210 l40 6 -40 -14 c-127 -44 -197 -101 -240 -197 -37 -83 -36 -139 2
-222 45 -95 119 -149 260 -190 l51 -15 6 101 c3 56 8 188 11 292 13 422 41
716 86 900 10 44 42 126 70 182 59 120 126 193 198 218 l46 15 -39 -32 c-131
-108 -182 -309 -193 -765 -5 -204 -4 -243 8 -243 56 0 208 -33 274 -59 144
-55 242 -130 345 -260 35 -45 68 -81 74 -81 5 0 57 48 116 108 193 195 314
421 382 711 29 126 36 387 13 501 -9 47 -17 90 -18 97 -1 6 25 46 58 88 l60
75 32 -70 c18 -39 39 -97 48 -129z m-2374 -78 c-109 -150 -208 -363 -261 -558
-39 -145 -50 -388 -25 -560 37 -264 129 -456 267 -560 74 -55 113 -74 193 -90
59 -12 60 -12 31 -24 -37 -15 -137 -16 -201 -1 -256 58 -459 458 -430 849 30
409 181 777 430 1049 l60 66 3 -37 c3 -31 -6 -49 -67 -134z m802 -930 c-7 -2
-19 -2 -25 0 -7 3 -2 5 12 5 14 0 19 -2 13 -5z m-145 -199 c37 4 82 9 100 13
33 5 34 5 29 -27 -3 -17 -8 -34 -10 -37 -3 -2 -44 -1 -91 4 -48 5 -89 7 -91 4
-3 -2 -5 -64 -5 -138 0 -73 -4 -133 -9 -133 -5 0 -20 15 -34 33 -79 104 -76
226 9 327 l29 34 3 -43 3 -44 67 7z m996 -405 c15 -44 40 -133 56 -197 31
-123 133 -672 127 -678 -4 -4 -133 183 -430 622 l-136 202 102 32 c56 18 134
47 172 66 39 18 73 34 76 34 4 0 18 -36 33 -81z m396 -429 c62 -85 148 -202
190 -260 510 -699 540 -738 624 -816 60 -56 104 -86 180 -124 56 -27 122 -54
149 -61 40 -10 47 -15 47 -37 0 -23 -2 -24 -42 -18 -24 3 -209 9 -412 12
l-368 7 -30 41 c-92 126 -187 387 -308 846 -58 218 -107 396 -144 514 -14 44
-19 73 -12 65 7 -8 64 -84 126 -169z m-2275 -147 c-220 -94 -385 -310 -442
-578 -18 -86 -13 -262 11 -350 49 -181 166 -325 312 -384 27 -11 43 -20 35
-20 -31 -2 -163 72 -209 117 -59 58 -125 166 -160 264 -22 64 -26 89 -26 203
-1 178 35 320 120 473 70 126 215 247 341 286 75 23 84 18 18 -11z m985 -1070
c47 -23 179 -53 228 -53 58 0 92 -12 92 -31 0 -17 -6 -19 -52 -14 -29 3 -136
7 -238 10 -102 2 -187 4 -190 5 -2 0 20 25 50 55 30 30 57 54 60 52 3 -2 25
-13 50 -24z m1308 -93 c-81 -9 -102 -7 -106 12 -2 13 9 18 60 25 58 8 64 7 80
-11 17 -21 16 -21 -34 -26z m-2331 -176 c-3 -3 -12 -4 -19 -1 -8 3 -5 6 6 6
11 1 17 -2 13 -5z m-1266 -555 c92 -28 159 -125 159 -233 0 -74 -24 -126 -84
-185 l-44 -43 -36 27 c-42 32 -43 36 -14 61 39 35 78 106 78 143 0 45 -30 95
-72 121 -29 18 -51 20 -200 20 l-168 0 0 -93 0 -93 -50 -49 -50 -49 0 192 0
192 221 0 c137 0 236 -4 260 -11z m-61 -244 c0 -2 -39 -42 -86 -88 l-87 -83
182 -148 c99 -81 181 -149 181 -152 0 -2 -35 -4 -77 -4 l-78 1 -133 109 c-74
61 -140 110 -147 110 -7 0 -27 -16 -44 -35 -29 -33 -31 -41 -31 -110 l0 -75
-50 0 -50 0 0 98 0 98 143 142 144 142 66 0 c37 0 67 -2 67 -5z m1660 -135
l-1 -35 -15 28 c-12 21 -22 27 -49 27 l-35 0 0 -119 c0 -105 2 -120 18 -124 9
-3 -8 -5 -38 -5 -30 0 -47 2 -37 5 15 4 17 19 17 124 l0 119 -30 0 c-23 0 -35
-8 -51 -32 -12 -18 -18 -25 -15 -15 3 10 6 28 6 40 0 21 4 22 115 22 l115 0 0
-35z m3188 34 c15 -4 22 -14 22 -31 l0 -24 -23 27 c-19 21 -29 26 -50 20 -29
-7 -43 -37 -29 -62 5 -8 31 -32 58 -53 41 -30 50 -43 52 -73 2 -28 -2 -40 -20
-52 -27 -19 -50 -22 -24 -3 32 24 17 67 -39 109 -56 42 -71 71 -56 106 16 34
60 49 109 36z m-4398 -31 l0 -27 -16 22 c-12 18 -24 22 -52 20 l-37 -3 -3 -52
-3 -53 35 0 c19 0 41 7 49 15 13 13 15 10 15 -22 0 -29 -2 -33 -9 -20 -7 12
-23 17 -50 17 l-40 0 3 -57 3 -58 37 -3 c27 -2 43 3 57 17 l21 21 0 -25 c0
-25 -1 -25 -92 -25 -77 0 -89 2 -74 13 15 11 17 27 14 130 l-3 117 73 0 c72 0
72 0 72 -27z m510 -75 l85 -103 3 74 c2 41 -2 87 -7 102 -9 27 -8 29 17 29 20
0 23 -3 14 -12 -8 -8 -12 -52 -12 -130 0 -65 -3 -118 -8 -118 -4 0 -48 48 -97
108 l-90 107 -3 -99 c-2 -73 1 -102 10 -108 8 -5 -3 -8 -27 -8 -32 1 -36 3
-22 11 15 9 17 26 17 124 0 81 -4 115 -12 118 -7 3 1 6 17 6 26 1 41 -12 115
-101z m1220 75 l0 -27 -16 22 c-12 18 -24 22 -52 20 l-37 -3 -3 -52 -3 -53 33
0 c19 0 39 5 46 12 9 9 12 6 12 -17 0 -23 -3 -26 -12 -17 -7 7 -27 12 -45 12
l-34 0 3 -57 c3 -52 5 -58 27 -61 37 -6 67 6 79 30 10 22 11 21 11 -9 l1 -33
-92 0 c-68 1 -88 3 -75 11 14 9 17 26 17 117 0 71 -4 112 -12 120 -9 9 6 12
70 12 l82 0 0 -27z m432 -33 c-3 -55 -2 -60 16 -60 50 0 71 75 30 104 l-22 16
27 0 c17 0 32 -9 43 -25 15 -23 15 -27 -5 -61 -21 -36 -21 -36 -2 -67 22 -36
79 -92 101 -100 8 -3 -1 -6 -21 -6 -39 -1 -57 14 -104 87 -16 24 -35 42 -46
42 -16 0 -19 -8 -19 -59 0 -48 3 -60 18 -64 9 -3 -8 -5 -38 -5 -30 0 -47 2
-37 5 16 4 18 16 15 129 l-3 124 25 0 c24 0 25 -2 22 -60z m601 53 c-9 -3 -13
-37 -13 -119 0 -110 1 -115 23 -124 16 -7 7 -9 -38 -8 -33 0 -53 2 -44 5 10 2
19 12 21 21 10 38 9 192 -2 212 -10 19 -8 20 27 19 21 0 32 -3 26 -6z m90 -5
c9 -7 20 -27 23 -45 5 -27 1 -37 -24 -63 -21 -20 -39 -30 -59 -29 -23 1 -24 2
-6 6 54 10 71 88 27 122 l-27 21 25 0 c13 0 32 -6 41 -12z m439 -48 c-4 -64 5
-73 49 -50 24 13 26 72 3 94 -14 15 -14 16 2 16 23 0 54 -29 54 -50 0 -10 -9
-29 -21 -43 l-20 -27 29 -42 c32 -46 68 -82 92 -91 8 -4 -3 -5 -25 -4 -36 2
-43 7 -83 65 -28 39 -50 62 -63 62 -17 0 -19 -7 -19 -59 0 -48 3 -60 18 -64 9
-3 -8 -5 -38 -5 -30 0 -47 2 -37 5 16 4 18 16 15 129 l-3 124 25 0 c24 0 25
-2 22 -60z m600 -64 c-3 -113 -1 -125 15 -129 10 -3 -7 -5 -37 -5 -30 0 -47 2
-37 5 16 4 18 16 15 129 l-3 124 25 0 25 0 -3 -124z m1068 97 l0 -27 -16 22
c-12 18 -24 22 -52 20 l-37 -3 -3 -52 -3 -53 33 0 c19 0 39 5 46 12 9 9 12 6
12 -17 0 -23 -3 -26 -12 -17 -7 7 -27 12 -45 12 l-34 0 3 -57 c3 -52 5 -58 27
-61 37 -6 67 6 79 30 10 22 11 21 11 -9 l1 -33 -92 0 c-68 1 -88 3 -75 11 14
9 17 26 17 117 0 71 -4 112 -12 120 -9 9 6 12 70 12 l82 0 0 -27z m-631 -221
l26 -23 -30 7 c-43 10 -45 12 -45 47 1 29 2 30 11 12 6 -11 23 -30 38 -43z"/>
<path d="M5127 7392 c-2 -4 1 -152 6 -329 9 -286 12 -323 26 -323 34 0 182 30
252 51 74 21 241 97 312 141 l37 24 -50 81 c-90 146 -192 239 -334 303 -74 34
-241 68 -249 52z m260 -88 c115 -55 234 -169 306 -294 l27 -46 -63 -35 c-78
-45 -221 -106 -268 -114 -33 -6 -38 -4 -74 42 -21 26 -63 74 -94 105 l-55 58
-4 123 -4 124 63 36 c71 41 81 41 166 1z"/>
</g>
</svg>
